<svg class="animated" id="freepik_stories-outer-space" xmlns="http://www.w3.org/2000/svg" viewBox="0 0 500 500" version="1.1" xmlns:xlink="http://www.w3.org/1999/xlink" xmlns:svgjs="http://svgjs.com/svgjs"><style>svg#freepik_stories-outer-space:not(.animated) .animable {opacity: 0;}svg#freepik_stories-outer-space.animated #freepik--Moon--inject-6 {animation: 1.5s Infinite  linear wind;animation-delay: 0s;}svg#freepik_stories-outer-space.animated #freepik--Stars--inject-6 {animation: 6s Infinite  linear spin;animation-delay: 0s;}svg#freepik_stories-outer-space.animated #freepik--Planets--inject-6 {animation: 1s 1 forwards cubic-bezier(.36,-0.01,.5,1.38) fadeIn,6s Infinite  linear floating;animation-delay: 0s,1s;}svg#freepik_stories-outer-space.animated #freepik--Rocket--inject-6 {animation: 1.5s Infinite  linear floating;animation-delay: 0s;}            @keyframes wind {                0% {                    transform: rotate( 0deg );                }                25% {                    transform: rotate( 1deg );                }                75% {                    transform: rotate( -1deg );                }            }                 @keyframes spin {             from {                 transform: rotate(0);               }               to {                 transform: rotate(360deg);               }         }                 @keyframes fadeIn {                0% {                    opacity: 0;                }                100% {                    opacity: 1;                }            }                    @keyframes floating {                0% {                    opacity: 1;                    transform: translateY(0px);                }                50% {                    transform: translateY(-10px);                }                100% {                    opacity: 1;                    transform: translateY(0px);                }            }        </style><g id="freepik--Moon--inject-6" class="animable" style="transform-origin: 113.989px 376.492px;"><path d="M66.13,340.67l7.7-7.7a5.64,5.64,0,0,0,0-8h0a5.65,5.65,0,0,0-8,0l-7.7,7.7a5.64,5.64,0,0,0,0,8h0A5.65,5.65,0,0,0,66.13,340.67Z" style="fill: rgb(235, 235, 235); transform-origin: 65.98px 332.82px;" id="els280eu5rj" class="animable"></path><path d="M171.31,417l4.89-9.73a5.65,5.65,0,0,0-2.51-7.58h0a5.64,5.64,0,0,0-7.58,2.51l-4.89,9.73a5.64,5.64,0,0,0,2.51,7.58h0A5.64,5.64,0,0,0,171.31,417Z" style="fill: rgb(235, 235, 235); transform-origin: 168.708px 409.6px;" id="ellbewzzh3679" class="animable"></path><path d="M103.89,318.93l5.79-.83a5.65,5.65,0,0,0,4.79-6.39h0a5.64,5.64,0,0,0-6.39-4.79l-5.79.83a5.64,5.64,0,0,0-4.79,6.39h0A5.65,5.65,0,0,0,103.89,318.93Z" style="fill: rgb(235, 235, 235); transform-origin: 105.984px 312.924px;" id="el0v2qhpo37x7" class="animable"></path><path d="M57.93,395.34l-.83-5.79a5.64,5.64,0,0,0-6.39-4.79h0a5.63,5.63,0,0,0-4.78,6.38l.82,5.8a5.66,5.66,0,0,0,6.39,4.79h0A5.65,5.65,0,0,0,57.93,395.34Z" style="fill: rgb(235, 235, 235); transform-origin: 51.9293px 393.244px;" id="elg2wylfnwdqj" class="animable"></path><g id="el7vxu3p4m8og"><rect x="167.89" y="374.56" width="17.14" height="11.29" rx="2.16" style="fill: rgb(235, 235, 235); transform-origin: 176.46px 380.205px; transform: rotate(90deg);" class="animable" id="el3966nerc3c2"></rect></g><path d="M93.41,444.42l5.65,1.51a5.64,5.64,0,0,0,6.91-4h0a5.65,5.65,0,0,0-4-6.92l-5.65-1.51a5.65,5.65,0,0,0-6.92,4h0A5.67,5.67,0,0,0,93.41,444.42Z" style="fill: rgb(235, 235, 235); transform-origin: 97.6876px 439.715px;" id="elhp6mfll6ak" class="animable"></path><circle cx="112.97" cy="377.76" r="65.14" style="fill: rgb(235, 235, 235); transform-origin: 112.97px 377.76px;" id="elvjusn3e3el" class="animable"></circle><path d="M136.67,339.12a14.63,14.63,0,0,1-2.41,8.84,17.63,17.63,0,0,1-7.08,6.26,12.92,12.92,0,0,1-9.57.81,13.44,13.44,0,0,1-7.28-5.6,19.45,19.45,0,0,0,7.81,3.45,11.43,11.43,0,0,0,4,0,12.63,12.63,0,0,0,3.79-1.22c.61-.3,1.23-.63,1.83-1s1.16-.75,1.69-1.19a18.9,18.9,0,0,0,3-2.84A22.3,22.3,0,0,0,136.67,339.12Z" style="fill: rgb(199, 199, 199); transform-origin: 123.51px 347.357px;" id="eldtd6ewek7xq" class="animable"></path><path d="M113.25,342.87a9.37,9.37,0,0,1,1.36-6.23,11.73,11.73,0,0,1,4.9-4.46,8.88,8.88,0,0,1,6.8-.49,8.65,8.65,0,0,1,4.87,4.16,14.58,14.58,0,0,0-5.4-2,8.77,8.77,0,0,0-5,.89A15.45,15.45,0,0,0,113.25,342.87Z" style="fill: rgb(199, 199, 199); transform-origin: 122.174px 337.052px;" id="elb5bkzetyok" class="animable"></path><path d="M91.19,387.61a8.84,8.84,0,0,1,.16,6.21,10.81,10.81,0,0,1-3.76,5.27,8.54,8.54,0,0,1-6.41,1.73,8.72,8.72,0,0,1-5.46-3,15.72,15.72,0,0,0,5.56.78,8.4,8.4,0,0,0,4.58-1.77,13.31,13.31,0,0,0,3.46-3.89A16.18,16.18,0,0,0,91.19,387.61Z" style="fill: rgb(199, 199, 199); transform-origin: 83.7782px 394.254px;" id="elsyllz24ncdg" class="animable"></path><path d="M77.7,395a5.66,5.66,0,0,1-.44-4.36,7.25,7.25,0,0,1,2.62-3.81,5.88,5.88,0,0,1,4.65-1.18,5.6,5.6,0,0,1,3.7,2.4,12.86,12.86,0,0,0-3.8-.17,6,6,0,0,0-2.83,1.21A11.06,11.06,0,0,0,77.7,395Z" style="fill: rgb(199, 199, 199); transform-origin: 82.6212px 390.282px;" id="eldh50448hb2v" class="animable"></path><path d="M67.83,373.11a5.87,5.87,0,0,1,1.86,4.19,6.37,6.37,0,0,1-1.85,4.6,5.69,5.69,0,0,1-4.77,1.63,6.76,6.76,0,0,1-4.09-2A21.16,21.16,0,0,0,63,381.3a5,5,0,0,0,2.79-1.4,6.61,6.61,0,0,0,1.65-2.83A12,12,0,0,0,67.83,373.11Z" style="fill: rgb(199, 199, 199); transform-origin: 64.3355px 378.344px;" id="elbibjrzqv9lr" class="animable"></path><path d="M59.76,379.44a3.72,3.72,0,0,1-1.62-2.88,4.43,4.43,0,0,1,1.29-3.42A4.06,4.06,0,0,1,63,372a4.23,4.23,0,0,1,2.79,1.69,21.93,21.93,0,0,0-2.74.55,3.39,3.39,0,0,0-1.59.91,5.1,5.1,0,0,0-1.09,1.65A9.55,9.55,0,0,0,59.76,379.44Z" style="fill: rgb(199, 199, 199); transform-origin: 61.9604px 375.691px;" id="elvuyrjc42k5" class="animable"></path><path d="M157.09,353.82a5.79,5.79,0,0,1-1.4,4.36,6.39,6.39,0,0,1-4.43,2.22,5.7,5.7,0,0,1-4.65-1.95,6.8,6.8,0,0,1-1.76-4.19,21.36,21.36,0,0,0,3.21,2.49,5.11,5.11,0,0,0,3,.81,6.66,6.66,0,0,0,3.11-1A12.34,12.34,0,0,0,157.09,353.82Z" style="fill: rgb(199, 199, 199); transform-origin: 150.983px 357.115px;" id="elb34nezujjo" class="animable"></path><path d="M146.85,353.19a3.72,3.72,0,0,1,.71-3.23,4.45,4.45,0,0,1,3.23-1.7,4,4,0,0,1,3.42,1.51,4.21,4.21,0,0,1,1,3.12,20,20,0,0,0-2.42-1.42,3.33,3.33,0,0,0-1.79-.37,5.07,5.07,0,0,0-1.91.5A9.7,9.7,0,0,0,146.85,353.19Z" style="fill: rgb(199, 199, 199); transform-origin: 150.983px 350.72px;" id="elitnbrpjrld" class="animable"></path><path d="M120.57,398.08a14.43,14.43,0,1,0-7.24-19A14.39,14.39,0,0,0,120.57,398.08Z" style="fill: rgb(219, 219, 219); transform-origin: 126.513px 384.934px;" id="elvh3spik77rm" class="animable"></path><path d="M133.19,378.11a13,13,0,0,1,7.42,9.19,14.37,14.37,0,1,0-25.11,7,13.09,13.09,0,0,1,17.69-16.16Z" style="fill: rgb(199, 199, 199); transform-origin: 126.43px 382.45px;" id="elqjukz0l06sp" class="animable"></path><path d="M146.35,387.32a18.58,18.58,0,0,1-3.18,10.76,22,22,0,0,1-8.68,7.57,15.84,15.84,0,0,1-11.6,1.06,17.05,17.05,0,0,1-9.06-6.66,22.92,22.92,0,0,0,9.59,4.5,21.72,21.72,0,0,0,2.53.27,13.9,13.9,0,0,0,2.5-.2,16,16,0,0,0,4.79-1.52c.77-.39,1.54-.8,2.28-1.24s1.46-.93,2.12-1.49a22.73,22.73,0,0,0,3.74-3.6A26.25,26.25,0,0,0,146.35,387.32Z" style="fill: rgb(199, 199, 199); transform-origin: 130.092px 397.335px;" id="elgu7mbzhveim" class="animable"></path><path d="M162.12,392.8a5.39,5.39,0,1,0-4-6.46A5.38,5.38,0,0,0,162.12,392.8Z" style="fill: rgb(219, 219, 219); transform-origin: 163.37px 387.557px;" id="el0zf1qcsjs47" class="animable"></path><path d="M165.32,384.58a4.87,4.87,0,0,1,3.37,2.84,5.36,5.36,0,1,0-8.7,4.34,4.81,4.81,0,0,1-.51-3.51A4.88,4.88,0,0,1,165.32,384.58Z" style="fill: rgb(199, 199, 199); transform-origin: 163.331px 386.985px;" id="elgztyxuucxm6" class="animable"></path><path d="M170.79,387a6.63,6.63,0,0,1-.27,4.23,8,8,0,0,1-2.66,3.47,6,6,0,0,1-4.28,1.21,6.1,6.1,0,0,1-3.79-1.93,9.1,9.1,0,0,0,3.84.82,5.82,5.82,0,0,0,3.38-1.23A9.77,9.77,0,0,0,170.79,387Z" style="fill: rgb(199, 199, 199); transform-origin: 165.403px 391.471px;" id="elowg34gbsnng" class="animable"></path><path d="M125.17,427.66a7.65,7.65,0,1,0-7.19-8.05A7.63,7.63,0,0,0,125.17,427.66Z" style="fill: rgb(219, 219, 219); transform-origin: 125.618px 420.023px;" id="el8o4ju268v0t" class="animable"></path><path d="M127.63,415.38a6.88,6.88,0,0,1,5.42,3.14,7.62,7.62,0,1,0-11.11,8.21,6.83,6.83,0,0,1-1.58-4.79A6.92,6.92,0,0,1,127.63,415.38Z" style="fill: rgb(199, 199, 199); transform-origin: 125.506px 419.574px;" id="el172kv1lt6bh" class="animable"></path><path d="M135.89,417.44a10,10,0,0,1,.43,5.92,11.67,11.67,0,0,1-2.85,5.38,8.47,8.47,0,0,1-5.52,2.72,9.15,9.15,0,0,1-5.74-1.55,12,12,0,0,0,5.6.45,8.34,8.34,0,0,0,4.62-2.59,13,13,0,0,0,2.83-4.7A13.75,13.75,0,0,0,135.89,417.44Z" style="fill: rgb(199, 199, 199); transform-origin: 129.395px 424.46px;" id="elgfp9rblzhjo" class="animable"></path><path d="M91.09,353.87c-3.45,5.27-11.07,6.39-17,2.5s-8-11.32-4.54-16.59,11.06-6.39,17-2.5S94.53,348.6,91.09,353.87Z" style="fill: rgb(219, 219, 219); transform-origin: 80.3166px 346.825px;" id="elmoaf5zq00zs" class="animable"></path><path d="M72.15,344.72a10,10,0,0,0-.56,9.61c-4-4.1-5-10.09-2.06-14.56,3.44-5.26,11.06-6.38,17-2.49a13.05,13.05,0,0,1,6.18,11.79,12.43,12.43,0,0,0-5.13-6.63C82.2,338.92,75.28,339.93,72.15,344.72Z" style="fill: rgb(199, 199, 199); transform-origin: 80.2801px 344.646px;" id="el8nd9x1uwbdr" class="animable"></path><path d="M95.29,345.17A12.24,12.24,0,0,1,97,354.46,11.62,11.62,0,0,1,94.85,359a14.39,14.39,0,0,1-3.73,3.43,13.85,13.85,0,0,1-4.81,1.63,16.11,16.11,0,0,1-4.91-.14,20.13,20.13,0,0,1-8.63-3.74,40.15,40.15,0,0,0,8.87,1.53,14.56,14.56,0,0,0,8-1.72,12.35,12.35,0,0,0,3.08-2.66,11.18,11.18,0,0,0,2.11-3.51A16.09,16.09,0,0,0,95.29,345.17Z" style="fill: rgb(199, 199, 199); transform-origin: 85.0247px 354.677px;" id="elz40nbvmukf" class="animable"></path></g><g id="freepik--Stars--inject-6" class="animable" style="transform-origin: 250px 250px;"><polygon points="386.75 339.87 392.26 340.88 393.49 346.69 394.72 340.88 400.23 339.86 394.74 338.52 393.49 333.04 392.23 338.52 386.75 339.87" style="fill: rgb(199, 199, 199); transform-origin: 393.49px 339.865px;" id="ellisfls52ono" class="animable"></polygon><polygon points="159.46 308.51 164.97 309.53 166.2 315.34 167.43 309.53 172.94 308.51 167.46 307.17 166.2 301.69 164.95 307.17 159.46 308.51" style="fill: rgb(199, 199, 199); transform-origin: 166.2px 308.515px;" id="elop2s5g7rqy" class="animable"></polygon><polygon points="330.48 246.44 335.99 247.46 337.22 253.26 338.45 247.46 343.96 246.44 338.48 245.09 337.22 239.61 335.97 245.09 330.48 246.44" style="fill: rgb(199, 199, 199); transform-origin: 337.22px 246.435px;" id="elw7v6dh7gdr" class="animable"></polygon><polygon points="439.11 305.68 442.19 306.25 442.88 309.5 443.57 306.25 446.64 305.68 443.58 304.93 442.88 301.87 442.18 304.93 439.11 305.68" style="fill: rgb(199, 199, 199); transform-origin: 442.875px 305.685px;" id="elclzh7v54ez5" class="animable"></polygon><polygon points="205.47 429.18 208.54 429.75 209.23 433 209.92 429.75 213 429.18 209.93 428.43 209.23 425.37 208.53 428.43 205.47 429.18" style="fill: rgb(199, 199, 199); transform-origin: 209.235px 429.185px;" id="el2xo974hrpb7" class="animable"></polygon><polygon points="431.58 159.59 434.66 160.16 435.35 163.4 436.03 160.16 439.11 159.58 436.05 158.84 435.35 155.77 434.64 158.84 431.58 159.59" style="fill: rgb(199, 199, 199); transform-origin: 435.345px 159.585px;" id="el8wdqeec78ke" class="animable"></polygon><polygon points="68.39 229.4 71.47 229.97 72.16 233.21 72.84 229.97 75.92 229.4 72.86 228.65 72.16 225.58 71.46 228.65 68.39 229.4" style="fill: rgb(199, 199, 199); transform-origin: 72.155px 229.395px;" id="eli0jnxki1gjg" class="animable"></polygon><polygon points="84.91 394.59 87.99 395.16 88.68 398.4 89.36 395.16 92.44 394.59 89.38 393.84 88.68 390.77 87.97 393.84 84.91 394.59" style="fill: rgb(199, 199, 199); transform-origin: 88.675px 394.585px;" id="el2n45yvsfb2" class="animable"></polygon><polygon points="419.7 241.8 422.78 242.37 423.46 245.61 424.15 242.37 427.23 241.8 424.17 241.05 423.46 237.98 422.76 241.05 419.7 241.8" style="fill: rgb(199, 199, 199); transform-origin: 423.465px 241.795px;" id="elwgq5unu4wh" class="animable"></polygon><polygon points="289.83 346.69 292.91 347.26 293.6 350.51 294.29 347.26 297.37 346.69 294.3 345.94 293.6 342.88 292.9 345.94 289.83 346.69" style="fill: rgb(199, 199, 199); transform-origin: 293.6px 346.695px;" id="elngk9dwdh7z" class="animable"></polygon><polygon points="177.79 86.07 180.87 86.64 181.56 89.88 182.25 86.64 185.32 86.07 182.26 85.32 181.56 82.25 180.86 85.32 177.79 86.07" style="fill: rgb(199, 199, 199); transform-origin: 181.555px 86.065px;" id="el3c67xfbgexy" class="animable"></polygon><polygon points="298.32 334.9 301.4 335.47 302.09 338.72 302.78 335.47 305.86 334.9 302.79 334.15 302.09 331.08 301.39 334.15 298.32 334.9" style="fill: rgb(199, 199, 199); transform-origin: 302.09px 334.9px;" id="el531zoz55mnq" class="animable"></polygon><path d="M198.18,436.2a.9.9,0,0,1,0,1.79A.9.9,0,0,1,198.18,436.2Z" style="fill: rgb(199, 199, 199); transform-origin: 198.18px 437.095px;" id="elyhv60xfqqiq" class="animable"></path><path d="M357.39,268.81a.9.9,0,0,1,0,1.79A.9.9,0,0,1,357.39,268.81Z" style="fill: rgb(199, 199, 199); transform-origin: 357.39px 269.705px;" id="elh1ewkqqfx3r" class="animable"></path><path d="M281.24,344a.89.89,0,0,1,0,1.78A.89.89,0,0,1,281.24,344Z" style="fill: rgb(199, 199, 199); transform-origin: 281.24px 344.89px;" id="eleom09il1od8" class="animable"></path><path d="M148.87,429.51a.89.89,0,0,1,0,1.78A.89.89,0,0,1,148.87,429.51Z" style="fill: rgb(199, 199, 199); transform-origin: 148.87px 430.4px;" id="elbq14y3lakz7" class="animable"></path><path d="M446.81,441.33a.9.9,0,0,1,0,1.79A.9.9,0,0,1,446.81,441.33Z" style="fill: rgb(199, 199, 199); transform-origin: 446.81px 442.225px;" id="elza44435l45" class="animable"></path><path d="M399.86,280.51a.89.89,0,0,1,0,1.78A.89.89,0,0,1,399.86,280.51Z" style="fill: rgb(199, 199, 199); transform-origin: 399.86px 281.4px;" id="elc1eqbn9wwp" class="animable"></path><path d="M220.54,420.15a.63.63,0,0,1,0,1.26A.63.63,0,0,1,220.54,420.15Z" style="fill: rgb(199, 199, 199); transform-origin: 220.54px 420.78px;" id="elq7op11oclzk" class="animable"></path><path d="M94.46,92.32a.64.64,0,0,1,0,1.27A.64.64,0,0,1,94.46,92.32Z" style="fill: rgb(199, 199, 199); transform-origin: 94.46px 92.955px;" id="eloepzuo0xye" class="animable"></path><path d="M338,295.25a.63.63,0,0,1,0,1.26A.63.63,0,0,1,338,295.25Z" style="fill: rgb(199, 199, 199); transform-origin: 338px 295.88px;" id="elzlia2llnion" class="animable"></path><path d="M307.46,349.88a.63.63,0,0,1,0,1.26A.63.63,0,0,1,307.46,349.88Z" style="fill: rgb(199, 199, 199); transform-origin: 307.46px 350.51px;" id="elfwx9vw7n3ms" class="animable"></path><path d="M257.51,339.23a.64.64,0,0,1,0,1.27A.64.64,0,0,1,257.51,339.23Z" style="fill: rgb(199, 199, 199); transform-origin: 257.51px 339.865px;" id="elfm14iipgh68" class="animable"></path><path d="M316.56,283.78a1.71,1.71,0,0,1,0,3.42A1.71,1.71,0,0,1,316.56,283.78Z" style="fill: rgb(199, 199, 199); transform-origin: 316.56px 285.49px;" id="eljm97o5ytc6r" class="animable"></path><polygon points="228.99 110.97 234.5 111.99 235.73 117.79 236.96 111.99 242.47 110.97 236.98 109.63 235.73 104.14 234.47 109.63 228.99 110.97" style="fill: rgb(199, 199, 199); transform-origin: 235.73px 110.965px;" id="elb3g9mfqi4x" class="animable"></polygon><polygon points="249.98 60.7 253.06 61.27 253.75 64.51 254.44 61.27 257.51 60.7 254.45 59.95 253.75 56.88 253.05 59.95 249.98 60.7" style="fill: rgb(199, 199, 199); transform-origin: 253.745px 60.695px;" id="eletes1ah6juc" class="animable"></polygon><path d="M63.34,144a.89.89,0,0,1,0,1.78A.89.89,0,0,1,63.34,144Z" style="fill: rgb(199, 199, 199); transform-origin: 63.34px 144.89px;" id="eln83lnikehxr" class="animable"></path><path d="M77.36,380.7a.9.9,0,0,1,0,1.79A.9.9,0,0,1,77.36,380.7Z" style="fill: rgb(199, 199, 199); transform-origin: 77.36px 381.595px;" id="elbcekp6kgdyi" class="animable"></path><path d="M53.19,425a.9.9,0,0,1,0,1.79A.9.9,0,0,1,53.19,425Z" style="fill: rgb(199, 199, 199); transform-origin: 53.19px 425.895px;" id="el4jd6d3gxwg4" class="animable"></path><path d="M98.9,218.82a.9.9,0,0,1,0,1.79A.9.9,0,0,1,98.9,218.82Z" style="fill: rgb(199, 199, 199); transform-origin: 98.9px 219.715px;" id="ely2mpawjwpw" class="animable"></path><path d="M53.19,64.77a.9.9,0,0,1,0,1.79A.9.9,0,0,1,53.19,64.77Z" style="fill: rgb(199, 199, 199); transform-origin: 53.19px 65.665px;" id="elmvrit36yuh7" class="animable"></path><path d="M134.21,338.15a.64.64,0,0,1,0,1.27A.64.64,0,0,1,134.21,338.15Z" style="fill: rgb(199, 199, 199); transform-origin: 134.21px 338.785px;" id="elqcel3exe8hn" class="animable"></path><path d="M267.39,419.08a.63.63,0,0,1,0,1.26A.63.63,0,0,1,267.39,419.08Z" style="fill: rgb(199, 199, 199); transform-origin: 267.39px 419.71px;" id="el66mvgz76lkm" class="animable"></path><path d="M361.15,130.23a.64.64,0,0,1,0,1.27A.64.64,0,0,1,361.15,130.23Z" style="fill: rgb(199, 199, 199); transform-origin: 361.15px 130.865px;" id="el676rzkj5n1e" class="animable"></path><path d="M247.1,91.57a.63.63,0,0,1,0,1.26A.63.63,0,0,1,247.1,91.57Z" style="fill: rgb(199, 199, 199); transform-origin: 247.1px 92.2px;" id="ele2oobbp8x0g" class="animable"></path><path d="M209.23,315.72a1.71,1.71,0,0,1,0,3.42A1.71,1.71,0,0,1,209.23,315.72Z" style="fill: rgb(199, 199, 199); transform-origin: 209.23px 317.43px;" id="elhw3wcrhcp2" class="animable"></path><path d="M434.59,186.45a1.72,1.72,0,0,1,0,3.43A1.72,1.72,0,0,1,434.59,186.45Z" style="fill: rgb(199, 199, 199); transform-origin: 434.59px 188.165px;" id="el4m0nx57nval" class="animable"></path><path d="M84.47,336.44a1.71,1.71,0,0,1,0,3.42A1.71,1.71,0,0,1,84.47,336.44Z" style="fill: rgb(199, 199, 199); transform-origin: 84.47px 338.15px;" id="elkddj5p25w6" class="animable"></path><polygon points="228.19 270.6 231.27 271.17 231.96 274.41 232.65 271.17 235.73 270.6 232.66 269.85 231.96 266.78 231.26 269.85 228.19 270.6" style="fill: rgb(199, 199, 199); transform-origin: 231.96px 270.595px;" id="elf87wx56xb25" class="animable"></polygon><polygon points="293.6 425.87 296.68 426.44 297.37 429.68 298.05 426.44 301.13 425.86 298.07 425.12 297.37 422.05 296.66 425.12 293.6 425.87" style="fill: rgb(199, 199, 199); transform-origin: 297.365px 425.865px;" id="el6t4h9k2msoh" class="animable"></polygon><path d="M307.24,385.88a.9.9,0,0,1,0,1.79A.9.9,0,0,1,307.24,385.88Z" style="fill: rgb(199, 199, 199); transform-origin: 307.24px 386.775px;" id="elwviuj5m57e" class="animable"></path><path d="M342,362.14a.9.9,0,0,1,0,1.79A.9.9,0,0,1,342,362.14Z" style="fill: rgb(199, 199, 199); transform-origin: 342px 363.035px;" id="eldmn6xlndjvq" class="animable"></path><polygon points="231.96 403.13 235.04 403.7 235.73 406.95 236.42 403.7 239.5 403.13 236.43 402.38 235.73 399.31 235.03 402.38 231.96 403.13" style="fill: rgb(199, 199, 199); transform-origin: 235.73px 403.13px;" id="elaix3fhkxjtj" class="animable"></polygon><path d="M358.7,115.68a.9.9,0,0,1,0,1.79A.9.9,0,0,1,358.7,115.68Z" style="fill: rgb(199, 199, 199); transform-origin: 358.7px 116.575px;" id="elcdar7cj7q0b" class="animable"></path><path d="M380.17,365a.63.63,0,0,1,0,1.26A.63.63,0,0,1,380.17,365Z" style="fill: rgb(199, 199, 199); transform-origin: 380.17px 365.63px;" id="el8bkkbkmi3w7" class="animable"></path><polygon points="111.52 257.62 114.6 258.19 115.28 261.43 115.97 258.19 119.05 257.62 115.99 256.87 115.28 253.8 114.58 256.87 111.52 257.62" style="fill: rgb(199, 199, 199); transform-origin: 115.285px 257.615px;" id="elw4j8n98hsl" class="animable"></polygon><path d="M75.92,306.73a.89.89,0,0,1,0,1.78A.89.89,0,0,1,75.92,306.73Z" style="fill: rgb(199, 199, 199); transform-origin: 75.92px 307.62px;" id="elo9l61ecv3kj" class="animable"></path><path d="M199,241a.89.89,0,0,1,0,1.78A.89.89,0,0,1,199,241Z" style="fill: rgb(199, 199, 199); transform-origin: 199px 241.89px;" id="el8f46ka9fmxe" class="animable"></path><path d="M94.46,150.83a.64.64,0,0,1,0,1.27A.64.64,0,0,1,94.46,150.83Z" style="fill: rgb(199, 199, 199); transform-origin: 94.46px 151.465px;" id="el8z79rjnz3xf" class="animable"></path><path d="M86.37,145a1.71,1.71,0,0,1,0,3.42A1.71,1.71,0,0,1,86.37,145Z" style="fill: rgb(199, 199, 199); transform-origin: 86.37px 146.71px;" id="elrmabxehx68k" class="animable"></path><path d="M436.24,69.49a1.71,1.71,0,0,1,0,3.42A1.71,1.71,0,0,1,436.24,69.49Z" style="fill: rgb(199, 199, 199); transform-origin: 436.24px 71.2px;" id="el20ixszz6nw4" class="animable"></path></g><g id="freepik--Planets--inject-6" class="animable" style="transform-origin: 252.389px 248.745px;"><g id="eljgs67cfy0mc"><circle cx="370.95" cy="390.79" r="32.59" style="fill: rgb(69, 90, 100); transform-origin: 370.95px 390.79px; transform: rotate(-43.34deg);" class="animable" id="elxwhtfzu10b"></circle></g><path d="M340.62,402.75a38.32,38.32,0,0,1,9.63-7.14c6.21-3.36,23.47-7.87,31.25-12.62,10.94-6.67,11.86-13,11.54-16.18a32.77,32.77,0,0,0-10.62-6.52c-.55,3.35-2.78,13.84-21.17,22-9.5,4.23-19,2.68-22.28,2.16A32.48,32.48,0,0,0,340.62,402.75Z" style="fill: rgb(55, 71, 79); transform-origin: 365.716px 381.52px;" id="els6uv3skmyyg" class="animable"></path><path d="M355.31,419.39A32.65,32.65,0,0,0,395.7,412a26,26,0,0,0-6-1.85c-8.91-1.42-18.19,3.54-21.54,5.79A19.14,19.14,0,0,1,355.31,419.39Z" style="fill: rgb(55, 71, 79); transform-origin: 375.505px 416.635px;" id="eldp9y2ahury4" class="animable"></path><path d="M342.94,407.47l.47.76.44.67c.34.51.68,1,1,1.49s.67.86,1,1.27l.39.46.45.51c.15.17.3.34.46.5l.56.58.56.56.5.47c.37.34.75.67,1.13,1h0c2.07.45,4.76,0,8.59-1.92,5.72-2.79,11.63-8.87,22.7-13.89A40.73,40.73,0,0,1,403,396.77h0a32.5,32.5,0,0,0-2.42-19.57c-2.08.09-8.69,1.58-22,14.48a85,85,0,0,1-13.55,11c-11.65,7.35-18.84,6-21.89,4.79h0Z" style="fill: rgb(55, 71, 79); transform-origin: 373.248px 396.55px;" id="elp63yb3ggjqr" class="animable"></path><path d="M372.49,372c.7,1.27,2.76,1.48,4.61.47s2.77-2.87,2.08-4.14-2.76-1.47-4.61-.46S371.8,370.68,372.49,372Z" style="fill: rgb(38, 50, 56); transform-origin: 375.835px 370.168px;" id="el8zaykg0jec7" class="animable"></path><path d="M381.89,373.43c.39.71,1.61.8,2.72.19s1.68-1.68,1.29-2.39-1.61-.81-2.72-.2S381.5,372.71,381.89,373.43Z" style="fill: rgb(38, 50, 56); transform-origin: 383.895px 372.327px;" id="el1p0bvo5old9" class="animable"></path><path d="M360.35,415.58c.6,1.09,2.39,1.25,4,.36s2.44-2.48,1.85-3.57-2.39-1.24-4-.36S359.76,414.5,360.35,415.58Z" style="fill: rgb(38, 50, 56); transform-origin: 363.275px 413.977px;" id="el4q1q6ezseiq" class="animable"></path><path d="M366.43,416.16a1.63,1.63,0,1,0,.81-1.8A1.43,1.43,0,0,0,366.43,416.16Z" style="fill: rgb(38, 50, 56); transform-origin: 367.998px 415.792px;" id="elio0q8r7xvk" class="animable"></path><path d="M367.12,413.06a.9.9,0,0,0,1.22.15c.49-.27.73-.77.54-1.11a.91.91,0,0,0-1.23-.15C367.17,412.22,366.93,412.72,367.12,413.06Z" style="fill: rgb(38, 50, 56); transform-origin: 368px 412.58px;" id="elm8gqb3k7zv" class="animable"></path><path d="M387.37,411.13c.53,1,2,1.18,3.3.47s1.91-2.07,1.38-3-2-1.18-3.3-.47S386.84,410.16,387.37,411.13Z" style="fill: rgb(38, 50, 56); transform-origin: 389.71px 409.875px;" id="elu26bt4k9azo" class="animable"></path><path d="M386.18,406.78a1.29,1.29,0,1,0,.58-1.62A1.22,1.22,0,0,0,386.18,406.78Z" style="fill: rgb(38, 50, 56); transform-origin: 387.365px 406.294px;" id="eliwugrtsecs" class="animable"></path><path d="M344.89,410.39a281.6,281.6,0,0,0,58.65-19.34c14.6-6.86,23.61-13.43,22.39-17.14s-12.17-3.76-27.6-.79c.42.65.81,1.31,1.19,2,.14.26.27.52.41.77,8.21-1.05,13.65-.57,14.39,1.69s-3.48,6-10.93,10.08A180.49,180.49,0,0,1,374,399.92a180.8,180.8,0,0,1-31,7.55c-8.39,1.11-14,.64-14.72-1.65s3.35-5.85,10.54-9.86a30.54,30.54,0,0,1-.36-3.3C323.88,399.5,314.74,406.3,316,410S328.67,413.66,344.89,410.39Z" style="fill: rgb(38, 50, 56); transform-origin: 370.962px 391.905px;" id="elm9b725pcc6" class="animable"></path><path d="M346.73,412.62a288.17,288.17,0,0,0,28.83-7.76h0a289.24,289.24,0,0,0,27.78-10.49c20.28-9,33.23-18.17,31.54-23.43s-17.28-5.15-38.64-.7c.31.39.62.79.92,1.2,17.94-3.44,30.8-3.25,32.25,1.26s-9.07,12.34-25.94,20.12a261.41,261.41,0,0,1-28.29,10.9,260.13,260.13,0,0,1-29.47,7.72c-18.15,3.52-31.19,3.35-32.65-1.2s8.8-12.13,25.28-19.8c0-.51,0-1,.06-1.53-19.86,8.85-32.48,17.9-30.81,23.1S325.12,417.16,346.73,412.62Z" style="fill: rgb(55, 71, 79); transform-origin: 371.235px 391.458px;" id="ellqbatz0ibtq" class="animable"></path><g id="eln2grn2qnrrf"><circle cx="229.75" cy="219.34" r="19.23" style="fill: rgb(235, 235, 235); transform-origin: 229.75px 219.34px; transform: rotate(-18.85deg);" class="animable" id="elh8emxjdms4v"></circle></g><path d="M248.16,224.93a22.62,22.62,0,0,0-6-3.74c-3.81-1.68-14.18-3.52-19-5.95-6.75-3.4-7.59-7.07-7.55-9a19.19,19.19,0,0,1,5.93-4.34c.48,1.94,2.29,8,13.5,12,5.79,2,11.33.68,13.21.22A19.13,19.13,0,0,1,248.16,224.93Z" style="fill: rgb(219, 219, 219); transform-origin: 232.297px 213.415px;" id="el06ay2bpp9tcj" class="animable"></path><path d="M240.31,235.42A19.24,19.24,0,0,1,216.2,233a15.11,15.11,0,0,1,3.45-1.37c5.17-1.26,10.86,1.21,12.94,2.38A11.3,11.3,0,0,0,240.31,235.42Z" style="fill: rgb(219, 219, 219); transform-origin: 228.255px 234.93px;" id="el0yrr5j96ttz" class="animable"></path><path d="M247,227.82l-.24.46c-.07.15-.15.28-.23.42q-.26.48-.54.93c-.17.27-.35.53-.53.79l-.21.29L245,231l-.25.32q-.14.18-.3.36t-.3.36l-.28.3c-.2.22-.4.43-.61.64h0c-1.19.37-2.8.21-5.14-.72-3.5-1.37-7.26-4.67-14-7.09a24.05,24.05,0,0,0-12.94-.83h0a19.14,19.14,0,0,1,.5-11.62c1.22-.05,5.18.51,13.6,7.47a50.7,50.7,0,0,0,8.49,5.81c7.21,3.77,11.37,2.65,13.11,1.78H247Z" style="fill: rgb(219, 219, 219); transform-origin: 228.754px 222.941px;" id="el52uwimn3ezm" class="animable"></path><path d="M228.74,235.05c.34-.78,1.54-1,2.68-.51s1.78,1.53,1.44,2.31-1.54,1-2.68.52S228.4,235.84,228.74,235.05Z" style="fill: rgb(199, 199, 199); transform-origin: 230.8px 235.951px;" id="ela9hbd3jrfnm" class="animable"></path><path d="M234.18,233.68c.19-.44.9-.55,1.59-.25s1.08.89.89,1.33-.91.56-1.59.26S234,234.13,234.18,233.68Z" style="fill: rgb(199, 199, 199); transform-origin: 235.422px 234.223px;" id="elee24gx00b4t" class="animable"></path><path d="M219.27,210.06c.29-.66,1.33-.86,2.33-.42s1.57,1.33,1.27,2-1.33.86-2.33.42S219,210.73,219.27,210.06Z" style="fill: rgb(199, 199, 199); transform-origin: 221.075px 210.851px;" id="elpwd86ogdnt" class="animable"></path><path d="M222.81,209.4a.83.83,0,0,1,1.13-.27.84.84,0,0,1,.57,1,1,1,0,0,1-1.7-.74Z" style="fill: rgb(199, 199, 199); transform-origin: 223.672px 209.714px;" id="el4h71kpxxnro" class="animable"></path><path d="M223.38,211.18a.53.53,0,0,1,.71-.15c.3.13.46.41.37.62a.52.52,0,0,1-.71.16A.53.53,0,0,1,223.38,211.18Z" style="fill: rgb(199, 199, 199); transform-origin: 223.926px 211.42px;" id="ela5n1uqzmtwf" class="animable"></path><path d="M235.38,211.23a1.64,1.64,0,1,1,1,1.71A1.42,1.42,0,0,1,235.38,211.23Z" style="fill: rgb(199, 199, 199); transform-origin: 236.993px 211.425px;" id="elorurmoxapr" class="animable"></path><path d="M234.92,213.85a.76.76,0,0,1,1.39.61.76.76,0,0,1-1.39-.61Z" style="fill: rgb(199, 199, 199); transform-origin: 235.615px 214.155px;" id="elazywqq8nhyt" class="animable"></path><g id="els97zqtu9u5"><circle cx="94.75" cy="85.63" r="19.23" style="fill: #7E57C2; transform-origin: 94.75px 85.63px; transform: rotate(-21.82deg);" class="animable" id="el16elvzxi3kk"></circle></g><g id="elir3o0nqe7wp"><circle cx="94.75" cy="85.63" r="19.23" style="opacity: 0.1; transform-origin: 94.75px 85.63px; transform: rotate(-21.82deg);" class="animable" id="eltnuef8yjlg"></circle></g><g id="el8x625f2tnlq"><g style="opacity: 0.1; transform-origin: 94.7498px 86.5294px;" class="animable" id="ela8q73dxm4g"><path d="M113.16,91.22a22.73,22.73,0,0,0-6-3.74C103.34,85.8,93,84,88.17,81.54c-6.75-3.41-7.59-7.08-7.55-9a19.11,19.11,0,0,1,5.94-4.34c.48,1.94,2.28,8,13.49,12,5.79,2,11.33.67,13.21.21A19.13,19.13,0,0,1,113.16,91.22Z" id="elqa3q5ah9tu8" class="animable" style="transform-origin: 97.3045px 79.71px;"></path><path d="M105.3,101.71a19.26,19.26,0,0,1-24.11-2.43,15.3,15.3,0,0,1,3.45-1.37c5.17-1.26,10.87,1.22,13,2.38A11.27,11.27,0,0,0,105.3,101.71Z" id="elq54u4ojof4" class="animable" style="transform-origin: 93.245px 101.21px;"></path><path d="M112,94.11a5.21,5.21,0,0,1-.24.47c-.07.14-.14.28-.22.42-.18.31-.36.62-.55.92s-.34.54-.53.8l-.21.28a3.81,3.81,0,0,1-.24.32l-.24.32-.3.37-.31.35-.27.31c-.2.22-.41.43-.62.63h0c-1.2.36-2.8.2-5.15-.72-3.49-1.37-7.26-4.67-14-7.1a24.12,24.12,0,0,0-12.93-.83h0A19.14,19.14,0,0,1,76.68,79c1.23-.05,5.18.51,13.61,7.47a49.32,49.32,0,0,0,8.49,5.81C106,96.1,110.15,95,111.89,94.1H112Z" id="ellxbwb0wxf9" class="animable" style="transform-origin: 93.7547px 89.2376px;"></path></g></g><g id="elxdvye8cozee"><g style="opacity: 0.1; transform-origin: 93.9103px 89.609px;" class="animable" id="el3qzumlisilh"><path d="M93.73,101.35c.34-.79,1.54-1,2.68-.52s1.79,1.53,1.45,2.31-1.55,1-2.68.52S93.39,102.13,93.73,101.35Z" id="el9l8k302jvu" class="animable" style="transform-origin: 95.7954px 102.244px;"></path><path d="M99.18,100c.19-.44.9-.56,1.58-.26s1.08.9.89,1.34-.9.55-1.59.26S99,100.42,99.18,100Z" id="elxowo8l7bcxj" class="animable" style="transform-origin: 100.416px 100.538px;"></path><path d="M84.26,76.36c.29-.67,1.33-.86,2.33-.43s1.57,1.33,1.28,2-1.34.86-2.34.42S84,77,84.26,76.36Z" id="el3p94kiwr7gl" class="animable" style="transform-origin: 86.0699px 77.1437px;"></path><path d="M87.8,75.69a.84.84,0,0,1,1.13-.27.73.73,0,1,1-.56,1.29A.85.85,0,0,1,87.8,75.69Z" id="elbfda8ku1jgq" class="animable" style="transform-origin: 88.667px 76.0891px;"></path><path d="M88.37,77.48a.53.53,0,0,1,.71-.16c.3.14.47.41.38.63a.54.54,0,0,1-.71.15C88.45,78,88.28,77.69,88.37,77.48Z" id="el5l4k2s9g28x" class="animable" style="transform-origin: 88.915px 77.7098px;"></path><path d="M100.38,77.52a1.63,1.63,0,1,1,1,1.72A1.42,1.42,0,0,1,100.38,77.52Z" id="elul6pdehyii" class="animable" style="transform-origin: 101.981px 77.731px;"></path><path d="M99.91,80.14a.76.76,0,0,1,1.39.61.76.76,0,0,1-1.39-.61Z" id="eljcefuc9cp7i" class="animable" style="transform-origin: 100.605px 80.445px;"></path></g></g></g><g id="freepik--Rocket--inject-6" class="animable" style="transform-origin: 249.999px 250.011px;"><path d="M233.64,122.84c-.71-.85-41.85-19.93-79.11,8.5-34.25,26.14-46.14,75.27-41.59,76.45,5.57,1.44,20.83-22,50.12-34.89,10.39-4.57,26.92,0,26.92,0Z" style="fill: #7E57C2; transform-origin: 172.825px 161.821px;" id="el11xgplidxtk" class="animable"></path><g id="ely454wp1vkog"><path d="M190,172.89a65.08,65.08,0,0,0-15-2c6.46-13.52,18.52-38.74,26.35-55.08,18.43.17,31.93,6.56,32.34,7Z" style="opacity: 0.1; transform-origin: 204.345px 144.35px;" class="animable" id="el6q5t2ln3qm2"></path></g><path d="M301.41,202.77c.72.84,12.82,44.55-21.33,76.65-31.39,29.52-81.8,33.21-82.22,28.53-.51-5.73,25.12-16.95,42.62-43.74,6.2-9.5,4.41-26.56,4.41-26.56Z" style="fill: #7E57C2; transform-origin: 250.962px 256.204px;" id="elgs99rg8fx8d" class="animable"></path><g id="elz4xcobwpx7"><path d="M303,236.05l-58.66,17.07a65.15,65.15,0,0,0,.51-15.47l56.52-34.88C301.82,203.25,306,217.74,303,236.05Z" style="opacity: 0.1; transform-origin: 274.208px 227.945px;" class="animable" id="elyfejf8ei9zl"></path></g><path d="M205.63,256.2l-40.18-47.39s21-56.19,70.76-93.93c24.87-18.83,54-32.92,80.17-42.24C352.43,59.72,382.59,56,387.26,61.48s-4,34.66-22.58,68.13c-13.49,24.21-32.17,50.69-54.81,72.15C264.49,244.72,205.63,256.2,205.63,256.2Z" style="fill: rgb(199, 199, 199); transform-origin: 276.978px 157.616px;" id="elcvls146gqvw" class="animable"></path><path d="M303.24,181.47A35.83,35.83,0,1,1,307.4,131,35.84,35.84,0,0,1,303.24,181.47Z" style="fill: rgb(166, 166, 166); transform-origin: 280.053px 154.153px;" id="elwrvnx7ddyk" class="animable"></path><path d="M305.2,178.14a35.83,35.83,0,1,1,4.16-50.5A35.84,35.84,0,0,1,305.2,178.14Z" style="fill: #7E57C2; transform-origin: 282.028px 150.81px;" id="el2d9tkm0jgdo" class="animable"></path><path d="M298.11,169.75a24.85,24.85,0,1,1,2.86-35A24.85,24.85,0,0,1,298.11,169.75Z" style="fill: rgb(255, 255, 255); transform-origin: 282.014px 150.818px;" id="elsyy95lfjbmn" class="animable"></path><path d="M298.12,169.75a24.83,24.83,0,0,1-7.95,4.55l-20-1.63a24.68,24.68,0,0,1-7.1-5.78,24.36,24.36,0,0,1-3.61-5.65l43.1,3.51A24.49,24.49,0,0,1,298.12,169.75Z" style="fill: rgb(235, 235, 235); transform-origin: 281.01px 167.77px;" id="elii2bh7oihrm" class="animable"></path><path d="M303.12,137.68l-39.78-3.24a24.29,24.29,0,0,1,2.6-2.57,24.84,24.84,0,0,1,35,2.86A24.11,24.11,0,0,1,303.12,137.68Z" style="fill: rgb(235, 235, 235); transform-origin: 283.23px 131.826px;" id="elnamomplpp7" class="animable"></path><path d="M305.28,159.6l-47.6-3.89a20,20,0,0,1-.35-2.21l48.64,4C305.78,158.18,305.54,158.89,305.28,159.6Z" style="fill: rgb(235, 235, 235); transform-origin: 281.65px 156.55px;" id="elqtj429tp0mi" class="animable"></path><path d="M364.68,129.61l-48.3-57C352.43,59.72,382.59,56,387.26,61.48S383.3,96.14,364.68,129.61Z" style="fill: #7E57C2; transform-origin: 352.444px 94.3205px;" id="el4iyh8v38vqh" class="animable"></path><path d="M330.58,77.45a2.09,2.09,0,1,1,.24-2.94A2.09,2.09,0,0,1,330.58,77.45Z" style="fill: rgb(255, 255, 255); transform-origin: 329.224px 75.8595px;" id="el7hib2yumwbd" class="animable"></path><path d="M339.17,87.59a2.09,2.09,0,1,1-2.7-3.19,2.09,2.09,0,0,1,2.7,3.19Z" style="fill: rgb(255, 255, 255); transform-origin: 337.79px 86.0201px;" id="el1z5af2hgro7" class="animable"></path><path d="M347.76,97.72a2.09,2.09,0,1,1,.25-3A2.08,2.08,0,0,1,347.76,97.72Z" style="fill: rgb(255, 255, 255); transform-origin: 346.442px 96.0996px;" id="eldse9v730ctq" class="animable"></path><path d="M356.36,107.86a2.09,2.09,0,1,1,.24-3A2.09,2.09,0,0,1,356.36,107.86Z" style="fill: rgb(255, 255, 255); transform-origin: 355.034px 106.244px;" id="elyy6dfg5awt" class="animable"></path><path d="M365,118a2.09,2.09,0,1,1,.24-2.95A2.09,2.09,0,0,1,365,118Z" style="fill: rgb(255, 255, 255); transform-origin: 363.649px 116.405px;" id="elwfngvxj4z68" class="animable"></path><path d="M177,207.7a2.09,2.09,0,0,1-2.7-3.19,2.09,2.09,0,1,1,2.7,3.19Z" style="fill: rgb(166, 166, 166); transform-origin: 175.68px 206.079px;" id="elsijdopsifp" class="animable"></path><path d="M185.64,217.84a2.09,2.09,0,1,1,.24-3A2.09,2.09,0,0,1,185.64,217.84Z" style="fill: rgb(166, 166, 166); transform-origin: 184.314px 216.224px;" id="elhc7j3bq75b" class="animable"></path><path d="M194.23,228a2.09,2.09,0,1,1,.24-2.95A2.09,2.09,0,0,1,194.23,228Z" style="fill: rgb(166, 166, 166); transform-origin: 192.879px 226.405px;" id="elmd1d6lf7q8n" class="animable"></path><path d="M202.82,238.11a2.09,2.09,0,1,1,.24-3A2.09,2.09,0,0,1,202.82,238.11Z" style="fill: rgb(166, 166, 166); transform-origin: 201.494px 236.494px;" id="elxhuhffjmahn" class="animable"></path><path d="M211.41,248.24a2.09,2.09,0,1,1,.25-3A2.08,2.08,0,0,1,211.41,248.24Z" style="fill: rgb(166, 166, 166); transform-origin: 210.092px 246.62px;" id="elz7cf818x0h" class="animable"></path><g id="el9ym224fc69m"><path d="M385,60.07c-27.82,2-76,18.84-126.69,58.6-37.46,29.37-64.79,80.77-77.53,108.22l-15.33-18.08s21-56.19,70.76-93.93c24.87-18.83,54-32.92,80.17-42.24C348.69,61.05,376.26,56.85,385,60.07Z" style="fill: rgb(255, 255, 255); opacity: 0.2; transform-origin: 275.225px 142.956px;" class="animable" id="el6c60wsmknzv"></path></g><polygon points="187.68 263.92 155.01 225.38 167.72 211.49 203.46 253.65 187.68 263.92" style="fill: #7E57C2; transform-origin: 179.235px 237.705px;" id="eli64h77plgts" class="animable"></polygon><g id="elk4vc0qkhrt"><polygon points="203.46 253.65 195.77 258.65 162.86 216.8 167.72 211.5 203.46 253.65" style="opacity: 0.1; transform-origin: 183.16px 235.075px;" class="animable" id="elsbjfi4494b"></polygon></g><polygon points="364.17 134.76 349.24 133.76 342.22 147.98 342.86 132.14 329.28 125.86 344.36 126.01 351.22 112.64 350.86 127.66 364.17 134.76" style="fill: rgb(252, 252, 252); transform-origin: 346.725px 130.31px;" id="elnnbtxvossvl" class="animable"></polygon><polygon points="360.5 79.61 352.15 79.06 348.23 87.01 348.59 78.15 341 74.64 349.43 74.72 353.26 67.25 353.06 75.65 360.5 79.61" style="fill: rgb(252, 252, 252); transform-origin: 350.75px 77.13px;" id="elfzoudbwjqen" class="animable"></polygon><polygon points="292.98 249.13 284.64 248.57 280.72 256.52 281.07 247.67 273.48 244.16 281.91 244.24 285.75 236.77 285.54 245.17 292.98 249.13" style="fill: rgb(252, 252, 252); transform-origin: 283.23px 246.645px;" id="el4i81x6w3rn" class="animable"></polygon><polygon points="144.46 175.38 136.11 174.82 132.19 182.77 132.55 173.92 124.96 170.41 133.39 170.49 137.22 163.02 137.02 171.41 144.46 175.38" style="fill: rgb(252, 252, 252); transform-origin: 134.71px 172.895px;" id="elflhwt1247gh" class="animable"></polygon><g id="elarjxwf1h8l5"><path d="M180.5,255.32c-15.15,10.21-28.52,23.24-38.28,38.81a104.42,104.42,0,0,0-16.39,52.25,95.75,95.75,0,0,0,3.41,27.88,99.77,99.77,0,0,0,11.56,26.2A114.55,114.55,0,0,0,159.41,423a144.89,144.89,0,0,0,23.72,18,146,146,0,0,1-26-15.31,119.07,119.07,0,0,1-22-21.18,107.34,107.34,0,0,1-23.22-57.64c-1.88-21.31,2.62-43.18,11.94-62.69s23.25-36.84,39.71-51Z" style="fill: #7E57C2; opacity: 0.6; transform-origin: 147.31px 337.09px;" class="animable" id="elrg5vuv1405c"></path></g><polygon points="154.59 278.55 148.63 279.65 147.3 285.93 145.97 279.65 140.01 278.54 145.95 277.09 147.3 271.16 148.66 277.09 154.59 278.55" style="fill: rgb(255, 255, 255); transform-origin: 147.3px 278.545px;" id="elt0ro5hovrm" class="animable"></polygon><polygon points="132.66 396.18 129.33 396.8 128.59 400.31 127.84 396.8 124.51 396.18 127.83 395.37 128.59 392.06 129.35 395.37 132.66 396.18" style="fill: rgb(255, 255, 255); transform-origin: 128.585px 396.185px;" id="el6o4jc1uzcse" class="animable"></polygon><polygon points="130.87 365.71 127.54 366.32 126.8 369.84 126.06 366.32 122.72 365.71 126.04 364.9 126.8 361.58 127.56 364.9 130.87 365.71" style="fill: rgb(255, 255, 255); transform-origin: 126.795px 365.71px;" id="elyyht740zg3" class="animable"></polygon><polygon points="150.19 258.96 146.86 259.58 146.11 263.09 145.37 259.58 142.04 258.96 145.36 258.15 146.11 254.84 146.87 258.15 150.19 258.96" style="fill: rgb(255, 255, 255); transform-origin: 146.115px 258.965px;" id="el5k0aqudsgy3" class="animable"></polygon><path d="M140.54,403.78a1,1,0,0,0,0,1.93A1,1,0,0,0,140.54,403.78Z" style="fill: rgb(255, 255, 255); transform-origin: 140.54px 404.745px;" id="ellgjxx48wm0e" class="animable"></path><path d="M168.1,254.26a1,1,0,0,0,0,1.93A1,1,0,0,0,168.1,254.26Z" style="fill: rgb(255, 255, 255); transform-origin: 168.1px 255.225px;" id="elhaiubbwr1no" class="animable"></path><path d="M116.12,340.37a1,1,0,0,0,0,1.93A1,1,0,0,0,116.12,340.37Z" style="fill: rgb(255, 255, 255); transform-origin: 116.12px 341.335px;" id="elkes5ji930vo" class="animable"></path><path d="M138.82,398.75a.69.69,0,0,0,0,1.37A.69.69,0,0,0,138.82,398.75Z" style="fill: rgb(255, 255, 255); transform-origin: 138.82px 399.435px;" id="elauu8fjycu3q" class="animable"></path><path d="M115.77,306.63a.68.68,0,0,0,0,1.36A.68.68,0,0,0,115.77,306.63Z" style="fill: rgb(255, 255, 255); transform-origin: 115.77px 307.31px;" id="elvbb5tmx22" class="animable"></path><path d="M122.72,376.49a1.86,1.86,0,0,0,0,3.71A1.86,1.86,0,0,0,122.72,376.49Z" style="fill: rgb(255, 255, 255); transform-origin: 122.72px 378.345px;" id="eln7g2u6zfkqe" class="animable"></path><path d="M124.51,300.35a1.85,1.85,0,0,0,0,3.7A1.85,1.85,0,0,0,124.51,300.35Z" style="fill: rgb(255, 255, 255); transform-origin: 124.51px 302.2px;" id="el35rf6a6jl53" class="animable"></path></g><defs>     <filter id="active" height="200%">         <feMorphology in="SourceAlpha" result="DILATED" operator="dilate" radius="2"></feMorphology>                <feFlood flood-color="#32DFEC" flood-opacity="1" result="PINK"></feFlood>        <feComposite in="PINK" in2="DILATED" operator="in" result="OUTLINE"></feComposite>        <feMerge>            <feMergeNode in="OUTLINE"></feMergeNode>            <feMergeNode in="SourceGraphic"></feMergeNode>        </feMerge>    </filter>    <filter id="hover" height="200%">        <feMorphology in="SourceAlpha" result="DILATED" operator="dilate" radius="2"></feMorphology>                <feFlood flood-color="#ff0000" flood-opacity="0.5" result="PINK"></feFlood>        <feComposite in="PINK" in2="DILATED" operator="in" result="OUTLINE"></feComposite>        <feMerge>            <feMergeNode in="OUTLINE"></feMergeNode>            <feMergeNode in="SourceGraphic"></feMergeNode>        </feMerge>            <feColorMatrix type="matrix" values="0   0   0   0   0                0   1   0   0   0                0   0   0   0   0                0   0   0   1   0 "></feColorMatrix>    </filter></defs></svg>